<?xml version="1.0" encoding="UTF-8"?>
<!DOCTYPE svg PUBLIC "-//W3C//DTD SVG 1.1//EN" "http://www.w3.org/Graphics/SVG/1.1/DTD/svg11.dtd">
<!-- Creator: CorelDRAW -->
<svg xmlns="http://www.w3.org/2000/svg" xml:space="preserve" width="200.12mm" height="175.874mm" version="1.1" style="shape-rendering:geometricPrecision; text-rendering:geometricPrecision; image-rendering:optimizeQuality; fill-rule:evenodd; clip-rule:evenodd"
viewBox="0 0 19997.71 17574.9"
 xmlns:xlink="http://www.w3.org/1999/xlink"
 xmlns:xodm="http://www.corel.com/coreldraw/odm/2003">
 <defs>
  <style type="text/css">
   <![CDATA[
    .fil0 {fill:#085F32}
   ]]>
  </style>
 </defs>
 <g id="Layer_x0020_1">
  <metadata id="CorelCorpID_0Corel-Layer"/>
  <g id="_2521969002752">
   <path class="fil0" d="M9188.68 0c0,0 -614.86,1046.4 442.29,1596.57 0,0 75.63,291.22 -355.92,614.87 -431.53,323.65 -1078.84,215.77 -1272.92,1121.85 -194.08,906.08 -280.46,237.45 -1294.43,1208.23 -1013.97,970.78 -862.9,1984.75 -862.9,1984.75 0,0 1242.28,-18.46 1769.16,-32.98 526.87,-14.51 995.87,173.12 995.87,173.12l901.96 -945.15c0,0 -360.93,-375.26 -837.08,-346.41 -476.16,28.85 -786.38,86.74 -692.65,-165.95 93.72,-252.68 310.39,-310.21 786.55,-360.74 476.16,-50.53 418.45,-801.07 418.45,-801.07 0,0 317.38,-519.71 750.36,-512.35 432.96,7.34 793.89,296.05 894.79,584.57 100.89,288.53 64.87,728.85 64.87,728.85 0,0 987.8,-41.58 1095.68,323.65 107.88,365.23 -448.02,240.68 -1070.6,323.65 -622.57,82.98 -951.96,155.74 -1721.48,1028.49 -769.52,872.75 -994.61,1454.46 -994.61,1454.46 0,0 -3282.4,96.95 -5352.28,1355.9 -2069.87,1258.94 -2624.52,2880.61 -2837.96,3819.49 -213.44,938.88 1749.44,-2518.08 4715.54,-3328.82 2966.1,-810.74 3732.75,-13.44 4175.22,-384.59 442.46,-371.14 656.44,-2041.02 2112.33,-2640.47 1455.9,-599.45 2711.81,-185.48 3054.45,-328.32 342.65,-142.83 -665.77,-2106.25 -1894.6,-2466.09 0,0 -149.1,-1166.84 -1179.2,-1514.32 -1030.1,-347.49 -794.26,-931 -794.26,-931 0,0 1030.1,-285.31 558.42,-1489.41 0,0 99.28,918.63 -670.24,943.36 -769.53,24.73 -943.36,-248.2 -904.84,-1014.15z"/>
   <path class="fil0" d="M10218.78 7947.05c0,0 635.84,-723.47 1008.59,-811.28 0,0 219.35,87.81 482.44,745.51 0,0 7805.47,153.4 8287.9,5503.35 0,0 -1074.18,-1600.34 -3310.72,-2872.19 -2236.54,-1271.85 -5218.22,-1293.72 -5700.65,-1096.41 -482.44,197.31 -767.56,-1468.97 -767.56,-1468.97z"/>
   <path class="fil0" d="M7256.99 10848.63l-7.7 1891.19c0,0 46.59,85.48 186.74,85.48 140.14,0 155.73,-31.18 163.43,-147.84 7.7,-116.67 23.3,-1743.17 23.3,-1743.17 0,0 435.65,108.96 575.8,-108.96 140.14,-217.91 77.95,-513.61 77.95,-513.61 0,0 -28.14,469.89 -446.05,258.07 -417.92,-211.83 -1135.83,-253.23 -1241.75,64.69 -105.91,317.91 46.96,576.52 158.78,464.87 111.83,-111.65 147.14,-147.14 123.66,-253.05 -23.48,-105.9 247.12,-158.78 385.84,2.34z"/>
   <path class="fil0" d="M9165.03 11129.81c-21.86,-30.65 -26.34,-586.55 -26.34,-586.55 0,0 -78.67,-113.62 -244.98,-69.9 -166.31,43.73 -166.31,512.01 -166.31,512.01 0,0 -490.32,-69.89 -560.21,166.31 -69.89,236.19 201.26,542.64 332.61,533.86 0,0 -293.18,-490.32 -30.64,-389.6 262.53,100.72 271.14,-12.9 262.53,358.95 -8.59,371.87 -88.89,1123.65 4.85,1156.81 93.72,33.15 358.95,165.58 369.89,-104.85 10.93,-270.43 5.38,-1291.74 5.38,-1291.74l856.62 12.9c0,0 14.52,1226.7 51.07,1350.71 36.56,124.01 248.2,102.33 248.2,-51.07 0,-153.41 94.98,-1861.99 65.77,-2073.63 -29.21,-211.65 -445.51,-196.96 -408.96,-14.52 36.56,182.43 30.83,488.16 30.83,488.16l-790.32 2.16z"/>
   <path class="fil0" d="M11909.08 10746.47c0,0 -100.54,175.44 116.85,263.26 217.39,87.82 447.13,-137.99 196.41,-367.74 -250.71,-229.75 -731.17,-171.33 -910.92,-83.51 -179.74,87.81 -1003.04,254.84 -547.48,1734.2 0,0 325.8,911.11 1170.06,639.42 844.26,-271.69 472.21,-831.71 413.8,-714.69 -58.42,117.03 -146.24,631 -605.91,484.76 -459.67,-146.24 -731.35,-468.1 -601.78,-802.32 129.57,-334.23 664.33,-229.75 881.71,-279.93 217.38,-50.17 725.07,-54.48 725.07,-492.11 0,-437.63 -168.81,-363.97 -174.01,-247.84 -5.2,116.13 63.43,411.29 -458.6,448.2 -522.04,36.92 -970.06,47.32 -1075.61,295.16 -105.55,247.84 -242.47,-231.71 10.57,-511.29 253.05,-279.56 458.6,-474.54 859.85,-365.59z"/>
   <path class="fil0" d="M2596.65 14603.6l-91.22 2535.45c0,0 -200.72,163.97 401.25,273.48 601.96,109.49 2444.06,273.66 2571.84,-1605 127.77,-1878.66 -1896.94,-1951.78 -1896.94,-1951.78 0,0 -1459.3,-164.15 -1696.39,437.81 -237.1,601.97 200.71,656.63 711.46,310.04zm984.93 -54.66l-91.22 2462.34c0,0 875.44,237.28 1057.88,-455.91 182.43,-693.19 -36.38,-1860.55 -966.66,-2006.43z"/>
   <path class="fil0" d="M6956.45 14024.94c0,0 449.1,-224.73 778.13,-48.21 329.04,176.51 713.97,1195.5 1043,1725.07 329.04,529.56 970.78,1299.8 986.91,1500.34 16.13,200.54 -184.58,425.26 -489.42,320.96 -304.83,-104.3 -641.74,-457.52 -713.96,-682.07 -72.23,-224.55 -80.29,-224.55 -80.29,-224.55l-1339.95 96.24c0,0 -23.83,521.5 -248.56,698.02 -224.73,176.51 -609.68,200.71 -738.16,40.14 -128.5,-160.58 -144.45,-200.72 24.01,-337.1 168.46,-136.37 272.76,-513.43 168.46,-513.43 -104.31,0 -305.02,136.38 -288.89,-144.44 16.13,-280.82 216.67,-497.31 641.93,-473.29 0,0 457.52,-1468.44 296.95,-1620.78 -160.57,-152.32 -144.44,-248.74 -40.14,-336.91zm609.68 1034.93c0,0 -401.07,850.52 -264.7,1018.98 136.38,168.46 521.33,136.38 673.83,32.08 152.51,-104.3 -104.3,-617.73 -409.13,-1051.06z"/>
   <path class="fil0" d="M10033.66 14032.64c0,0 95.34,1446.58 275.98,1884.21 180.64,437.63 171.32,637.63 304.47,190.32 133.16,-447.31 256.81,-1646.4 532.79,-1960.37 275.98,-313.98 838.34,-220.07 816.48,64.33 -21.86,284.41 0.18,2068.44 394.08,2451.4 393.91,382.98 525.45,153.23 459.67,-437.81 -65.76,-591.03 -197.13,-919.34 -273.65,-1269.52 -76.53,-350.18 163.97,-985.12 393.9,-766.12 229.93,218.99 536.38,1039.78 437.81,2232.59 -98.57,1192.82 -842.82,1116.29 -1094.43,1105.37 -251.61,-10.93 -678.67,-295.52 -809.85,-766.12 -131.18,-470.6 -76.34,-798.92 -317.19,-689.42 -240.86,109.49 10.93,623.83 -426.88,1105.36 -437.82,481.54 -558.06,317.38 -700.35,32.8 -142.3,-284.59 -820.97,-1455.36 -864.69,-2341.91 -43.72,-886.55 55.02,-700.53 197.13,-766.12 142.12,-65.58 196.96,-262.71 674.73,-68.99z"/>
   <path class="fil0" d="M14147.95 17574.9c0,0 828.85,-0.18 903.22,-655.91 74.38,-655.72 0,-1682.77 0,-1682.77 0,0 1138.34,1893.17 1509.66,2103.56 371.32,210.39 495.16,259.85 556.98,-433.15 61.83,-693.01 333.86,-2474.89 173.12,-2846.02 -160.76,-371.15 -705.37,-136.02 -717.74,494.98 -12.36,630.99 210.39,1249.8 -12.36,1299.26 -222.76,49.46 -1014.51,-1596.22 -1200.16,-1831.35 -185.67,-235.12 -1151.07,-24.9 -1051.96,98.93 99.1,123.83 296.95,136.01 259.85,544.43 -37.1,408.42 -222.76,2029.37 -321.68,2264.5 -98.93,235.12 -284.59,519.71 -98.93,643.54z"/>
  </g>
 </g>
</svg>
