<svg xmlns="http://www.w3.org/2000/svg" data-name="Layer 1" viewBox="0 0 100 100" id="whatsapp"><path d="M53,26.22a22.79,22.79,0,0,0-18.5,36.11,2.4,2.4,0,0,1,.24,2.41l-2.63,5.8,7.55-2.08a2.8,2.8,0,0,1,.64-.08,2.38,2.38,0,0,1,1.22.33A22.79,22.79,0,1,0,53,26.22ZM66.51,57.85a6.82,6.82,0,0,1-5.09,3.79c-2,.39-3.73-.26-5.62-.89A23.92,23.92,0,0,1,51,58.46a27.56,27.56,0,0,1-7.73-7.18,30.35,30.35,0,0,1-1.79-2.72,14.58,14.58,0,0,1-1.7-3.93,7.62,7.62,0,0,1-.23-1.78A7.1,7.1,0,0,1,42,37.24a3.2,3.2,0,0,1,3.49-.52c1.18.67,1.79,2.35,2.34,3.53a5.86,5.86,0,0,1,.74,3.18,6.2,6.2,0,0,1-1.65,2.68,1.11,1.11,0,0,0-.14,1.52,18.25,18.25,0,0,0,9.09,7.8,1,1,0,0,0,1.3-.28c.68-.84,1.35-2.48,2.39-2.9,1.36-.56,2.87.21,4,.9s2.87,1.44,3.16,2.77A3.3,3.3,0,0,1,66.51,57.85ZM53,26.22a22.79,22.79,0,0,0-18.5,36.11,2.4,2.4,0,0,1,.24,2.41l-2.63,5.8,7.55-2.08a2.8,2.8,0,0,1,.64-.08,2.38,2.38,0,0,1,1.22.33A22.79,22.79,0,1,0,53,26.22ZM66.51,57.85a6.82,6.82,0,0,1-5.09,3.79c-2,.39-3.73-.26-5.62-.89A23.92,23.92,0,0,1,51,58.46a27.56,27.56,0,0,1-7.73-7.18,30.35,30.35,0,0,1-1.79-2.72,14.58,14.58,0,0,1-1.7-3.93,7.62,7.62,0,0,1-.23-1.78A7.1,7.1,0,0,1,42,37.24a3.2,3.2,0,0,1,3.49-.52c1.18.67,1.79,2.35,2.34,3.53a5.86,5.86,0,0,1,.74,3.18,6.2,6.2,0,0,1-1.65,2.68,1.11,1.11,0,0,0-.14,1.52,18.25,18.25,0,0,0,9.09,7.8,1,1,0,0,0,1.3-.28c.68-.84,1.35-2.48,2.39-2.9,1.36-.56,2.87.21,4,.9s2.87,1.44,3.16,2.77A3.3,3.3,0,0,1,66.51,57.85ZM50.8,5.43A45.75,45.75,0,1,0,96.54,51.17,45.8,45.8,0,0,0,50.8,5.43ZM53,76.64a27.64,27.64,0,0,1-13-3.26L28.39,76.55a2.35,2.35,0,0,1-.64.09,2.41,2.41,0,0,1-2.2-3.41L29.75,64A27.62,27.62,0,1,1,53,76.64Zm0-50.42a22.79,22.79,0,0,0-18.5,36.11,2.4,2.4,0,0,1,.24,2.41l-2.63,5.8,7.55-2.08a2.8,2.8,0,0,1,.64-.08,2.38,2.38,0,0,1,1.22.33A22.79,22.79,0,1,0,53,26.22ZM66.51,57.85a6.82,6.82,0,0,1-5.09,3.79c-2,.39-3.73-.26-5.62-.89A23.92,23.92,0,0,1,51,58.46a27.56,27.56,0,0,1-7.73-7.18,30.35,30.35,0,0,1-1.79-2.72,14.58,14.58,0,0,1-1.7-3.93,7.62,7.62,0,0,1-.23-1.78A7.1,7.1,0,0,1,42,37.24a3.2,3.2,0,0,1,3.49-.52c1.18.67,1.79,2.35,2.34,3.53a5.86,5.86,0,0,1,.74,3.18,6.2,6.2,0,0,1-1.65,2.68,1.11,1.11,0,0,0-.14,1.52,18.25,18.25,0,0,0,9.09,7.8,1,1,0,0,0,1.3-.28c.68-.84,1.35-2.48,2.39-2.9,1.36-.56,2.87.21,4,.9s2.87,1.44,3.16,2.77A3.3,3.3,0,0,1,66.51,57.85Z"></path></svg>