<svg width="36" height="36" viewBox="0 0 36 36" fill="none" xmlns="http://www.w3.org/2000/svg">
<circle cx="18" cy="18" r="17" fill="#D9D9D9" stroke="url(#paint0_linear_24_70)" stroke-width="2"/>
<path d="M18 1C13.4913 1 9.1673 2.79107 5.97918 5.97918C2.79107 9.1673 1 13.4913 1 18C1 25.8767 6.36444 32.4878 13.6367 34.4144L15.5714 35H18.8095L22.3633 34.4144C29.6356 32.4878 35 25.8767 35 18C35 13.4913 33.2089 9.1673 30.0208 5.97918C26.8327 2.79107 22.5087 1 18 1ZM18 4.77778C21.1356 4.77778 23.6667 7.30889 23.6667 10.4444C23.6667 13.58 21.1356 16.1111 18 16.1111C14.8644 16.1111 12.3333 13.58 12.3333 10.4444C12.3333 7.30889 14.8644 4.77778 18 4.77778ZM18 31.7889C15.7557 31.7889 13.5463 31.2335 11.5689 30.1723C9.59137 29.111 7.90725 27.5769 6.66667 25.7067C6.72333 21.9478 14.2222 19.8889 18 19.8889C21.7589 19.8889 29.2767 21.9478 29.3333 25.7067C28.0928 27.5769 26.4086 29.111 24.4311 30.1723C22.4537 31.2335 20.2443 31.7889 18 31.7889Z" fill="#539A14"/>
<defs>
<linearGradient id="paint0_linear_24_70" x1="18" y1="2" x2="18" y2="34" gradientUnits="userSpaceOnUse">
<stop stop-color="#FB3748"/>
<stop offset="0.525" stop-color="#D00416"/>
<stop offset="1" stop-color="#4A9841"/>
</linearGradient>
</defs>
</svg>
