<svg width="9" height="9" viewBox="0 0 9 9" fill="none" xmlns="http://www.w3.org/2000/svg">
<path d="M3.10723 4.17812C2.94284 4.17867 2.78137 4.22153 2.63834 4.30256C2.83971 3.78134 3.17369 3.32174 3.60723 2.96923C3.63203 2.9488 3.65257 2.92369 3.66767 2.89532C3.68277 2.86696 3.69214 2.8359 3.69523 2.80391C3.69833 2.77193 3.69509 2.73965 3.68571 2.70891C3.67633 2.67818 3.66099 2.64959 3.64056 2.62479C3.62013 2.59998 3.59502 2.57944 3.56666 2.56434C3.53829 2.54924 3.50723 2.53988 3.47524 2.53678C3.44326 2.53369 3.41098 2.53692 3.38024 2.5463C3.34951 2.55568 3.32092 2.57102 3.29612 2.59145C2.40723 3.31367 2.01167 4.31368 2.01167 4.93368C2.0132 5.1529 2.07853 5.36693 2.19968 5.54964C2.32083 5.73235 2.49256 5.87583 2.6939 5.96256C2.8242 6.02569 2.96689 6.05908 3.11167 6.06034C3.23911 6.06654 3.36647 6.04678 3.48605 6.00228C3.60562 5.95778 3.71491 5.88946 3.8073 5.80146C3.89968 5.71346 3.97322 5.60762 4.02348 5.49035C4.07373 5.37307 4.09964 5.24682 4.09964 5.11923C4.09964 4.99164 4.07373 4.86539 4.02348 4.74811C3.97322 4.63084 3.89968 4.525 3.8073 4.437C3.71491 4.349 3.60562 4.28068 3.48605 4.23618C3.36647 4.19168 3.23911 4.17192 3.11167 4.17812H3.10723Z" fill="#31642B"/>
<path d="M5.58326 4.17763C5.41884 4.17799 5.25732 4.22086 5.11437 4.30208C5.31565 3.7814 5.64876 3.32195 6.08103 2.96874C6.10809 2.94924 6.13087 2.92441 6.14797 2.89577C6.16507 2.86714 6.17613 2.8353 6.18047 2.80223C6.1848 2.76916 6.18233 2.73556 6.17319 2.70348C6.16405 2.6714 6.14845 2.64154 6.12734 2.61571C6.10623 2.58989 6.08005 2.56867 6.05043 2.55334C6.02081 2.53801 5.98836 2.52891 5.95509 2.52659C5.92182 2.52427 5.88842 2.52879 5.85696 2.53986C5.8255 2.55093 5.79663 2.56832 5.77215 2.59097C4.88326 3.31319 4.4877 4.31319 4.4877 4.93319C4.48875 5.14993 4.55218 5.36178 4.6704 5.54344C4.78861 5.7251 4.95663 5.86889 5.15437 5.95763C5.28797 6.0226 5.4347 6.05605 5.58326 6.05541C5.71069 6.06161 5.83806 6.04185 5.95763 5.99735C6.07721 5.95285 6.1865 5.88453 6.27888 5.79653C6.37126 5.70853 6.44481 5.60269 6.49506 5.48542C6.54531 5.36814 6.57122 5.24189 6.57122 5.1143C6.57122 4.98671 6.54531 4.86046 6.49506 4.74318C6.44481 4.62591 6.37126 4.52007 6.27888 4.43207C6.1865 4.34407 6.07721 4.27575 5.95763 4.23125C5.83806 4.18675 5.71069 4.16699 5.58326 4.17319V4.17763Z" fill="#31642B"/>
</svg>
